<svg width="1506" height="922" viewBox="0 0 1506 922" fill="none" xmlns="http://www.w3.org/2000/svg">
<path d="M1489.12 -19.5264H16.8502C7.67348 -19.5264 0.234253 -12.0862 0.234253 -2.9082V904.909C0.234253 914.087 7.67348 921.528 16.8502 921.528H1489.12C1498.3 921.528 1505.74 914.087 1505.74 904.909V-2.9082C1505.74 -12.0862 1498.3 -19.5264 1489.12 -19.5264Z" fill="#FBFBFB"/>
<mask id="mask0_1525_8560" style="mask-type:luminance" maskUnits="userSpaceOnUse" x="622" y="-20" width="884" height="771">
<path d="M1489.54 -19.5264H1001.84C998.593 18.3335 975.716 88.6635 856.868 126.312C689.018 179.495 607.655 249.376 624.324 373.128C640.993 496.879 758.916 583.801 919.502 608.107C1080.11 632.414 1128.43 732.043 1262.07 746.574C1372.31 758.543 1442.94 743.721 1505.71 709.058V-3.33092C1505.71 -12.2609 1498.47 -19.5264 1489.52 -19.5264H1489.54Z" fill="white"/>
</mask>
<g mask="url(#mask0_1525_8560)">
<path d="M1489.54 -19.5264H1001.84C998.593 18.3335 975.716 88.6635 856.868 126.312C689.018 179.495 607.655 249.376 624.324 373.128C640.993 496.879 758.916 583.801 919.502 608.107C1080.11 632.414 1128.43 732.043 1262.07 746.574C1372.31 758.543 1442.94 743.721 1505.71 709.058V-3.33092C1505.71 -12.2609 1498.47 -19.5264 1489.52 -19.5264H1489.54Z" fill="#F5F5F5"/>
<path d="M1213.23 255.585L1125.47 282.824L1058.06 242.692C1056.71 241.9 1056.95 239.865 1058.45 239.416C1066.62 236.88 1075.25 236.193 1083.71 237.382L1213.2 255.585H1213.23Z" fill="#FFBB8A"/>
<path d="M1076.18 236.853L1139.39 274.475L1204.27 254.343L1083.73 237.408C1081.22 237.065 1078.71 236.88 1076.18 236.88V236.853Z" fill="#FFBB8A"/>
<path d="M917.494 314.449L916.384 314.792C908.116 317.355 899.187 316.615 891.474 312.705L810.085 271.49C806.783 269.799 802.926 269.482 799.386 270.592L793.733 272.335C792.65 272.679 792.121 273.868 792.544 274.898L821.972 344.118L826.251 354.079L920.69 324.753L917.494 314.449Z" fill="#FFBB8A"/>
<path d="M1002.42 358.438L1363.46 246.338C1384.17 239.918 1404.06 231.173 1422.82 220.288L1470.31 192.705C1471 192.309 1471.63 191.834 1472.21 191.279C1478.29 185.466 1474.91 175.189 1466.56 174.132L1413.38 167.342C1402.82 165.995 1392.09 166.919 1381.9 170.09L827.995 342.084C826.727 342.48 825.618 343.273 824.799 344.33C822.21 347.791 823.768 352.784 827.889 354.132L837.505 357.276C891.025 374.739 948.666 375.135 1002.42 358.438Z" fill="#FFBB8A"/>
<path d="M978.807 345.228L1379.12 220.922C1402.08 213.789 1424.16 204.092 1444.93 192.045L1471.79 176.431C1470.39 175.215 1468.62 174.37 1466.53 174.106L1413.36 167.316C1402.79 165.968 1392.07 166.893 1381.87 170.063L827.969 342.058C826.701 342.454 825.591 343.247 824.772 344.303C823.055 346.602 823.187 349.535 824.666 351.675C875.571 362.877 928.695 360.763 978.78 345.202L978.807 345.228Z" fill="#FBFBFB"/>
<path d="M1397.24 183.987L1439.93 170.724L1413.31 167.237L1393.89 173.26C1390.93 174.185 1389.27 177.329 1390.19 180.288C1391.12 183.247 1394.26 184.912 1397.22 183.987H1397.24Z" fill="#FFBB8A"/>
<path d="M1337.52 206.869L1340.91 205.82C1342.15 205.434 1342.84 204.117 1342.45 202.877L1341.4 199.496C1341.02 198.255 1339.7 197.562 1338.46 197.947L1335.08 198.997C1333.84 199.382 1333.15 200.7 1333.53 201.94L1334.58 205.321C1334.97 206.561 1336.28 207.255 1337.52 206.869Z" fill="#FFBB8A"/>
<path d="M1314.11 214.257L1317.49 213.208C1318.73 212.822 1319.42 211.505 1319.04 210.265L1317.99 206.884C1317.6 205.643 1316.29 204.95 1315.05 205.335L1311.66 206.385C1310.42 206.77 1309.73 208.088 1310.12 209.328L1311.17 212.709C1311.55 213.949 1312.87 214.643 1314.11 214.257Z" fill="#FFBB8A"/>
<path d="M1290.69 221.461L1294.07 220.412C1295.31 220.027 1296 218.709 1295.61 217.469L1294.56 214.088C1294.18 212.847 1292.86 212.154 1291.62 212.539L1288.24 213.589C1287 213.974 1286.31 215.292 1286.69 216.532L1287.74 219.913C1288.13 221.153 1289.45 221.847 1290.69 221.461Z" fill="#FFBB8A"/>
<path d="M1267.27 228.77L1270.65 227.72C1271.89 227.335 1272.58 226.018 1272.2 224.777L1271.15 221.396C1270.76 220.156 1269.45 219.463 1268.21 219.848L1264.83 220.898C1263.59 221.283 1262.89 222.6 1263.28 223.841L1264.33 227.222C1264.71 228.462 1266.03 229.155 1267.27 228.77Z" fill="#FFBB8A"/>
<path d="M1243.88 235.939L1247.26 234.889C1248.5 234.504 1249.19 233.186 1248.81 231.946L1247.76 228.565C1247.37 227.325 1246.06 226.632 1244.82 227.017L1241.44 228.067C1240.2 228.452 1239.5 229.769 1239.89 231.009L1240.94 234.39C1241.32 235.631 1242.64 236.324 1243.88 235.939Z" fill="#FFBB8A"/>
<path d="M1220.46 243.195L1223.84 242.145C1225.08 241.76 1225.78 240.442 1225.39 239.202L1224.34 235.821C1223.96 234.581 1222.64 233.887 1221.4 234.273L1218.02 235.322C1216.78 235.707 1216.09 237.025 1216.47 238.265L1217.52 241.646C1217.91 242.887 1219.22 243.58 1220.46 243.195Z" fill="#FFBB8A"/>
<path d="M1197.05 250.583L1200.43 249.533C1201.67 249.148 1202.36 247.83 1201.98 246.59L1200.93 243.209C1200.54 241.969 1199.22 241.275 1197.98 241.66L1194.6 242.71C1193.36 243.095 1192.67 244.413 1193.06 245.653L1194.11 249.034C1194.49 250.274 1195.81 250.968 1197.05 250.583Z" fill="#FFBB8A"/>
<path d="M1173.63 257.865L1177.01 256.815C1178.25 256.43 1178.95 255.112 1178.56 253.872L1177.51 250.491C1177.13 249.251 1175.81 248.558 1174.57 248.943L1171.19 249.993C1169.95 250.378 1169.26 251.695 1169.64 252.935L1170.69 256.316C1171.08 257.557 1172.39 258.25 1173.63 257.865Z" fill="#FFBB8A"/>
<path d="M1150.22 265.121L1153.6 264.071C1154.84 263.686 1155.53 262.368 1155.15 261.128L1154.1 257.747C1153.71 256.507 1152.39 255.813 1151.15 256.199L1147.77 257.248C1146.53 257.633 1145.84 258.951 1146.22 260.191L1147.27 263.572C1147.66 264.813 1148.98 265.506 1150.22 265.121Z" fill="#FFBB8A"/>
<path d="M1126.82 272.264L1130.2 271.214C1131.44 270.829 1132.13 269.512 1131.75 268.271L1130.7 264.89C1130.31 263.65 1129 262.957 1127.76 263.342L1124.37 264.392C1123.13 264.777 1122.44 266.095 1122.83 267.335L1123.88 270.716C1124.26 271.956 1125.58 272.649 1126.82 272.264Z" fill="#FFBB8A"/>
<path d="M1103.4 279.546L1106.78 278.497C1108.02 278.112 1108.72 276.794 1108.33 275.554L1107.28 272.173C1106.9 270.932 1105.58 270.239 1104.34 270.624L1100.96 271.674C1099.72 272.059 1099.03 273.377 1099.41 274.617L1100.46 277.998C1100.85 279.238 1102.16 279.932 1103.4 279.546Z" fill="#FFBB8A"/>
<path d="M1079.99 286.908L1083.37 285.858C1084.61 285.473 1085.3 284.155 1084.92 282.915L1083.87 279.534C1083.48 278.294 1082.16 277.601 1080.92 277.986L1077.54 279.036C1076.3 279.421 1075.61 280.738 1076 281.979L1077.05 285.36C1077.43 286.6 1078.75 287.293 1079.99 286.908Z" fill="#FFBB8A"/>
<path d="M1056.57 294.19L1059.95 293.14C1061.19 292.755 1061.89 291.438 1061.5 290.198L1060.45 286.816C1060.07 285.576 1058.75 284.883 1057.51 285.268L1054.13 286.318C1052.89 286.703 1052.19 288.021 1052.58 289.261L1053.63 292.642C1054.01 293.882 1055.33 294.575 1056.57 294.19Z" fill="#FFBB8A"/>
<path d="M1250.5 251.331L1115.38 293.286L1065.74 401.001C1064.37 403.96 1067.17 407.13 1070.29 406.179L1073.59 405.149C1082.62 402.348 1090.89 397.592 1097.87 391.199L1250.53 251.331H1250.5Z" fill="#FFBB8A"/>
<path d="M1093.64 393.101C1093.35 393.735 1093.27 394.369 1093.3 394.977C1094.85 393.788 1096.39 392.546 1097.84 391.199L1250.5 251.331L1143.7 284.488L1093.64 393.075V393.101Z" fill="#FFBB8A"/>
<path d="M871.609 335.928L824.059 350.697L805.33 391.305L814.153 388.557L871.609 335.928Z" fill="#FFBB8A"/>
<path d="M848.679 219.812C851.426 214.74 858.929 211.12 867.778 211.12C870.235 211.12 872.586 211.411 874.752 211.939C875.835 208.874 878.635 206.206 882.466 204.383C884.817 192.97 900.085 184.145 918.603 184.145C932.578 184.145 944.703 189.165 950.832 196.536C954.213 195.295 958.149 194.555 962.349 194.555C975.108 194.555 985.437 201.16 985.437 209.297C985.437 209.931 985.358 210.565 985.226 211.199C985.913 211.147 986.599 211.12 987.313 211.12C996.162 211.12 1003.66 214.766 1006.41 219.812H848.705H848.679Z" fill="#FBFBFB"/>
<path d="M573.868 301.714C576.616 296.642 584.118 293.022 592.967 293.022C595.424 293.022 597.775 293.313 599.941 293.841C601.025 290.776 603.825 288.108 607.655 286.285C610.006 274.872 625.275 266.047 643.793 266.047C657.767 266.047 669.892 271.067 676.021 278.438C679.402 277.197 683.338 276.457 687.538 276.457C700.298 276.457 710.627 283.062 710.627 291.199C710.627 291.833 710.547 292.467 710.415 293.101C711.102 293.049 711.789 293.022 712.502 293.022C721.352 293.022 728.854 296.668 731.601 301.714H573.895H573.868Z" fill="#FBFBFB"/>
<path d="M1217.43 352.837C1220.17 347.764 1227.68 344.145 1236.53 344.145C1238.98 344.145 1241.33 344.435 1243.5 344.964C1244.58 341.899 1247.38 339.231 1251.21 337.408C1253.56 325.994 1268.83 317.17 1287.35 317.17C1301.33 317.17 1313.45 322.19 1319.58 329.561C1322.96 328.319 1326.9 327.579 1331.1 327.579C1343.86 327.579 1354.18 334.184 1354.18 342.322C1354.18 342.956 1354.11 343.59 1353.97 344.224C1354.66 344.171 1355.35 344.145 1356.06 344.145C1364.91 344.145 1372.41 347.791 1375.16 352.837H1217.45H1217.43Z" fill="#FBFBFB"/>
<path d="M1271.4 177.25C1268.62 172.124 1261.01 168.425 1252.03 168.425C1249.55 168.425 1247.15 168.716 1244.95 169.244C1243.87 166.127 1241.02 163.432 1237.13 161.583C1234.73 149.984 1219.25 141.054 1200.47 141.054C1186.28 141.054 1174 146.153 1167.76 153.63C1164.33 152.362 1160.34 151.622 1156.09 151.622C1143.14 151.622 1132.66 158.333 1132.66 166.576C1132.66 167.236 1132.74 167.87 1132.87 168.505C1132.18 168.452 1131.47 168.425 1130.75 168.425C1121.77 168.425 1114.16 172.124 1111.39 177.25H1271.42H1271.4Z" fill="#FBFBFB"/>
<path d="M1252.35 38.5182C1254.54 34.4759 1260.54 31.5697 1267.59 31.5697C1269.55 31.5697 1271.42 31.8075 1273.17 32.2038C1274.04 29.7467 1276.26 27.6331 1279.32 26.18C1281.2 17.0651 1293.4 10.011 1308.17 10.011C1319.32 10.011 1329.01 14.0268 1333.9 19.8921C1336.59 18.8881 1339.74 18.3069 1343.09 18.3069C1353.26 18.3069 1361.53 23.5909 1361.53 30.0902C1361.53 30.5922 1361.45 31.1206 1361.37 31.5961C1361.93 31.5697 1362.48 31.5433 1363.03 31.5433C1370.11 31.5433 1376.08 34.4495 1378.28 38.4918H1252.35V38.5182Z" fill="#FBFBFB"/>
<path d="M1053.22 20.0243C1054.2 18.2277 1056.84 16.9331 1059.98 16.9331C1060.86 16.9331 1061.68 17.0388 1062.47 17.2238C1062.84 16.1405 1063.84 15.1894 1065.19 14.5553C1066.03 10.5131 1071.42 7.39551 1077.97 7.39551C1082.91 7.39551 1087.22 9.16566 1089.39 11.7812C1090.57 11.3321 1091.97 11.0679 1093.45 11.0679C1097.97 11.0679 1101.62 13.3929 1101.62 16.2991C1101.62 16.5368 1101.59 16.7482 1101.54 16.9596C1101.78 16.9596 1102.01 16.9596 1102.28 16.9596C1105.42 16.9596 1108.06 18.2541 1109.04 20.0507H1053.2L1053.22 20.0243Z" fill="#FBFBFB"/>
<path d="M1572.73 294.634C1570.25 290.037 1563.43 286.734 1555.4 286.734C1553.15 286.734 1551.04 286.998 1549.06 287.474C1548.08 284.674 1545.55 282.269 1542.06 280.631C1539.92 270.248 1526.05 262.243 1509.25 262.243C1496.57 262.243 1485.55 266.787 1479.98 273.498C1476.89 272.362 1473.35 271.701 1469.52 271.701C1457.95 271.701 1448.57 277.699 1448.57 285.096C1448.57 285.677 1448.65 286.259 1448.76 286.814C1448.15 286.761 1447.51 286.761 1446.88 286.761C1438.85 286.761 1432.03 290.063 1429.55 294.66H1572.76L1572.73 294.634Z" fill="#FBFBFB"/>
<path d="M1647.88 597.777H591.25V787.261H1647.88V597.777Z" fill="#FFBB8A"/>
<path d="M1647.88 527.87H591.25V568.821H1647.88V527.87Z" fill="#FFBB8A"/>
<path opacity="0.1" d="M1505.74 -19.5264H575.823V773.1H1505.74V-19.5264Z" fill="#FFBB8A"/>
<g opacity="0.39">
<path d="M563.566 766.574H522.171L1059.64 -60.636H1101.04L563.566 766.574Z" fill="#FBFBFB"/>
<path d="M1244.53 766.574H1203.14L1740.61 -60.636H1782L1244.53 766.574Z" fill="#FBFBFB"/>
<path d="M1168.05 766.574H1012.43L1549.9 -60.636H1705.55L1168.05 766.574Z" fill="#FBFBFB"/>
<path d="M488.754 766.574H333.108L870.605 -60.636H1026.25L488.754 766.574Z" fill="#FBFBFB"/>
</g>
<path d="M830.742 -111.098H807.998V763.325H830.742V-111.098Z" fill="#FBFBFB"/>
<path d="M1415.6 -111.098H1392.86V763.325H1415.6V-111.098Z" fill="#FBFBFB"/>
<path d="M1717.73 129.007V105.731L505.846 105.731V129.007L1717.73 129.007Z" fill="#FBFBFB"/>
</g>
<path d="M1028.89 794.263C1142.49 794.263 1234.57 785.285 1234.57 774.21C1234.57 763.135 1142.49 754.157 1028.89 754.157C915.299 754.157 823.214 763.135 823.214 774.21C823.214 785.285 915.299 794.263 1028.89 794.263Z" fill="#F5F5F5"/>
<path d="M1113.13 492.652L1040.09 511.093C1040.09 511.093 1058.95 592.995 1066.3 623.008C1073.83 653.734 1069.65 752.598 1069.65 752.598H1090.55L1101.85 622.638L1113.16 492.678L1113.13 492.652Z" fill="#236B44"/>
<path d="M1097.23 359.548C1097.23 359.548 1104.68 385.254 1116.73 428.874C1116.73 428.874 1132.23 434.501 1174.18 437.487L1172.86 451.436C1172.86 451.436 1126.61 459.812 1101.09 449.27C1075.57 438.755 1054.2 345.439 1097.23 359.548Z" fill="#FFA689"/>
<path d="M1137.68 449.455L1159.55 474.792L1194.89 428.768L1180.6 401.186L1137.68 449.455Z" fill="#5EB083"/>
<path d="M1133.85 460.076L1170.96 410.301L1194.89 428.768L1159.55 474.792L1133.85 460.076Z" fill="#5EB083"/>
<path d="M1188.74 438.993C1188.58 438.227 1187.6 437.936 1186.94 438.359C1185.67 439.178 1184.14 441.08 1180.55 441.186C1176.96 441.291 1172.25 438.781 1170.7 440.419C1170.7 440.419 1162.93 450.327 1170.8 460.129C1170.8 460.129 1194.63 466.337 1188.74 438.993Z" fill="#FFA689"/>
<path d="M1082.52 433.92C1082.52 433.92 1101.09 431.172 1116.33 418.042C1116.33 418.042 1110.94 389.059 1103.44 371.569C1095.94 354.079 1084.1 338.782 1064.87 350.169C1045.64 361.556 1051.24 387.659 1082.52 433.92Z" fill="#5EB083"/>
<path d="M1020.47 422.242C1020.47 422.242 1036.32 432.308 1056.42 432.308C1056.42 432.308 1071.26 406.84 1077 388.689C1082.73 370.565 1083.76 351.225 1061.75 347.289C1039.75 343.352 1026.94 366.787 1020.44 422.242H1020.47Z" fill="#5EB083"/>
<path d="M1103.07 500.525C1103.07 500.525 1057.92 485.281 1029.95 510.512C1029.95 510.512 1035.07 534.21 1050.53 562.559C1076.63 610.511 1089.99 626.02 1089.99 626.02C1089.99 626.02 1061.54 651.33 1006.73 714.606C1006.73 714.606 1010.16 727.552 1021.21 731.7C1021.21 731.7 1101.54 655.927 1125.76 635.716C1133.69 629.111 1132.08 624.144 1128.96 609.507C1123.67 584.725 1106.19 511.806 1103.1 500.525H1103.07Z" fill="#236B44"/>
<path d="M1064.63 312.679L1063.66 332.494C1063.66 332.494 1079.22 345.307 1092.03 344.726L1097.95 318.306L1061.68 293.656L1064.63 312.679Z" fill="#FFA689"/>
<path d="M1072.11 309.218C1072.11 309.218 1080.38 324.647 1095.46 329.35L1097.95 318.28L1072.11 309.191V309.218Z" fill="#ED8A6D"/>
<path d="M1040.25 582.348L1003.37 554.342C1001.31 552.757 1000.89 549.825 1002.48 547.737C1004.06 545.677 1006.99 545.254 1009.08 546.839L1045.96 574.844C1048.02 576.43 1048.44 579.362 1046.86 581.449C1045.27 583.51 1042.34 583.933 1040.25 582.348Z" fill="#07150E"/>
<path d="M1009.58 557.46L928.51 664.25" stroke="#07150E" stroke-width="0.94" stroke-miterlimit="10"/>
<path d="M1035.55 577.249L954.477 684.012" stroke="#07150E" stroke-width="0.94" stroke-miterlimit="10"/>
<path d="M1032.3 363.062C1032.3 363.062 992.834 365.043 986.494 387.315C980.154 409.587 980.999 497.117 980.999 497.117C980.999 497.117 989.32 517.011 1016 519.574C1016 519.574 1029.92 522.797 1029.1 493.576C1028.31 464.382 1032.27 363.062 1032.27 363.062H1032.3Z" fill="#050D08"/>
<path d="M1010.08 367.368C1010.08 367.368 1006.12 370.829 1004.01 375.373C996.268 392.018 998.645 436.906 995.37 440.525C992.622 443.537 987.973 444.092 983.377 445.36C981.422 445.888 979.124 444.647 979.229 442.744C980.973 404.356 978.014 372.414 1010.08 367.368Z" fill="#18432B"/>
<path d="M981.369 450.776C981.369 450.776 991.988 448.345 993.838 450.882C996.479 454.501 995.449 495.69 992.49 496.826C989.558 497.962 979.203 497.064 978.622 496.192C976.429 492.942 975.055 452.123 981.369 450.802V450.776Z" fill="#18432B"/>
<path d="M1114.9 263.009C1114.9 263.009 1125.84 316.245 1109.59 322.745C1093.35 329.244 1069.57 312.679 1063.76 295.823C1058.8 281.45 1059.32 247.315 1114.9 263.009Z" fill="#FFA689"/>
<path d="M1098.79 271.358C1098.79 271.358 1103.2 282.666 1094.48 285.334C1087.38 287.5 1085.32 292.732 1085.32 292.732C1085.32 292.732 1083.87 281.371 1076.13 280.948C1067.7 280.499 1068.17 292.52 1075.57 298.438C1075.57 298.438 1075.57 312.705 1064.63 312.705C1064.63 312.705 1039.96 284.383 1050.74 267.289C1049.15 262.084 1056.52 248.187 1075.44 246.417C1094.35 244.647 1099.79 249.059 1114.16 244.594C1127.9 240.341 1136.96 273.286 1098.82 271.384L1098.79 271.358Z" fill="#050D08"/>
<path opacity="0.22" d="M1067.62 496.113L1116.3 622.612L1013.04 721.792" stroke="#FBFBFB" stroke-width="0.25" stroke-miterlimit="10"/>
<path d="M930.702 774.13C930.702 780.656 925.419 785.967 918.868 785.967C912.316 785.967 907.033 780.683 907.033 774.13C907.033 767.578 912.316 762.294 918.868 762.294C925.419 762.294 930.702 767.578 930.702 774.13Z" fill="#07150E"/>
<path d="M886.64 753.259C886.64 759.784 881.356 765.095 874.805 765.095C868.254 765.095 862.97 759.811 862.97 753.259C862.97 746.706 868.254 741.422 874.805 741.422C881.356 741.422 886.64 746.706 886.64 753.259Z" fill="#07150E"/>
<path d="M982.531 661.978C982.531 661.978 986.177 714.818 967.263 743.985C948.348 773.153 920.743 768.424 920.743 768.424L926.423 759.494C926.423 759.494 946.367 767.658 958.175 736.508C970.01 705.359 967.632 673.021 967.632 673.021L982.505 661.978H982.531Z" fill="#07150E"/>
<path d="M960.659 647.05C960.659 647.05 972.493 648.186 981.871 659.441C989.109 668.107 934.929 751.911 922.751 770.511C921.298 772.73 918.603 773.761 916.041 773.074C907.324 770.749 887.168 764.487 872.533 753.444C872.533 753.444 928.457 655.293 960.659 647.05Z" fill="#050D08"/>
<path d="M964.859 647.975C964.859 647.975 920.373 621.212 896.493 643.431C880.643 658.173 850.105 699.705 838.271 716.086C835.418 720.049 835.867 725.491 839.354 728.926C846.988 736.403 862.997 748.239 874.277 754.395C875.941 755.319 878.028 754.765 879.084 753.179C888.753 738.516 935.008 669.666 964.885 647.949L964.859 647.975Z" fill="#18432B"/>
<path d="M866.352 681.449C864.608 680.075 861.993 680.815 860.646 682.585C854.993 690.009 840.86 708.582 838.773 712.096C834.678 718.965 851.426 733.496 871.899 744.302C878.292 747.684 886.111 733.021 894.353 721.792C899.795 714.368 904.497 707.843 903.89 705.438C903.203 702.849 892.557 699.52 882.809 693.497C876.443 689.534 871.001 685.121 866.352 681.475V681.449Z" fill="#236B44"/>
<path d="M964.859 647.975C964.859 647.975 944.756 633.735 916.252 633.285C892.029 632.916 865.427 674.844 865.427 674.844C861.993 679.256 903.493 704.408 908.116 698.675C926.449 676.086 944.386 658.939 953.526 650.67C954.16 650.141 959.074 646.178 964.885 647.975H964.859Z" fill="#236B44"/>
<path d="M889.466 748.978L914.245 711.594C915.143 710.247 916.913 709.745 918.366 710.458L942.616 721.951C944.148 722.691 944.677 724.593 943.752 726.02L919.74 762.426C918.366 764.513 915.671 765.359 913.347 764.381L891.368 755.214C888.911 754.183 888.013 751.198 889.466 748.978Z" fill="#103F26"/>
<path d="M1058.14 335.004C1058.14 335.004 1033.89 339.389 1029.95 375.664C1026.01 411.939 1029.95 514.607 1029.95 514.607C1029.95 514.607 1052.67 523.405 1078.42 510.855C1095.01 502.771 1105.61 502.321 1110.1 501.318C1111.92 500.895 1113.19 499.336 1113.21 497.46C1113.27 493.497 1113.32 485.888 1113.29 474.422C1113.21 442.375 1109.75 387.844 1095.96 350.433C1095.96 350.433 1072.56 336.14 1058.16 335.004H1058.14Z" fill="#5EB083"/>
<path d="M1074.49 401.265C1054.25 400.261 1039.27 408.372 1028.21 420.816C1027.99 463.616 1029.95 514.607 1029.95 514.607C1029.95 514.607 1043.47 519.811 1061.44 516.456C1048.57 496.773 1048.47 478.728 1059.59 456.588C1068.49 438.887 1074.49 401.265 1074.49 401.265Z" fill="#5EB083"/>
<path d="M1029.95 375.664C1029.95 375.664 1049.18 344.356 1063.26 349.64C1080.56 356.14 1084.08 389.587 1058.14 424.62L1044.32 439.23L1040.78 452.229C1040.78 452.229 1075.97 421.186 1084.23 391.014C1092.5 360.842 1081.65 348.874 1066.48 343.696C1047.86 337.328 1038.93 348.689 1027.57 364.383L1029.92 375.611L1029.95 375.664Z" fill="#050D08"/>
<path d="M1026.78 408.002C1026.78 408.002 1020.86 433.629 1018.91 465.967C1017.24 493.154 1016.98 526.628 1016.95 536.588C1016.95 538.305 1016.29 539.943 1015.08 541.132C1011.85 544.303 1005.65 552.149 1006.7 564.725C1007.07 569.138 1009 575.241 1019.96 578.754C1021.47 579.23 1025.43 580.895 1025.43 573.206C1025.43 565.518 1028.55 560.34 1031.69 557.777C1034.84 555.214 1038.06 561.978 1038.06 567.473C1038.06 572.968 1041.76 569.481 1042.5 565.571C1043.24 561.661 1042.66 551.146 1034.36 540.208C1034.36 540.208 1034.2 538.279 1035.26 525.122C1036.29 511.965 1038.51 467.421 1043.24 456.034C1047.97 444.647 1061.57 412.176 1061.57 412.176L1026.83 407.976L1026.78 408.002Z" fill="#FFA689"/>
<path d="M1020.47 424.779C1020.47 424.779 1036.32 432.308 1056.42 432.308C1056.42 432.308 1071.26 406.84 1077 388.689C1082.73 370.565 1083.76 351.225 1061.75 347.289C1039.75 343.352 1026.94 369.323 1020.44 424.779H1020.47Z" fill="#5EB083"/>
<path d="M1070.05 750.432C1070.05 750.432 1064.24 758.886 1067.09 771.118C1067.51 772.941 1069.07 774.183 1070.79 774.183H1133.55C1134.85 774.183 1135.88 772.968 1135.72 771.594C1135.3 768.027 1132.37 761.819 1117.44 759.996C1113.35 759.494 1109.44 757.961 1106.19 755.425C1100.82 751.224 1092.64 745.465 1089.81 747.05C1089.81 747.05 1080.8 752.492 1070.02 750.432H1070.05Z" fill="#050D08"/>
<path d="M1063.87 328.161C1061.62 328.24 1058.11 335.004 1058.11 335.004C1058.11 335.004 1064.77 340.129 1080.91 346.047C1088.38 348.795 1092.13 352.652 1093.85 355.083C1094.38 355.823 1095.51 355.532 1095.62 354.634C1096.1 351.041 1096.31 344.726 1092.79 341.08C1092.79 341.08 1070.55 335.004 1063.81 328.161H1063.87Z" fill="#236B44"/>
<path d="M1007.05 714.791C1007.05 714.791 996.876 716.086 989.611 726.337C988.528 727.842 988.634 729.85 989.796 731.145L1031.53 778.041C1032.41 779.018 1033.99 778.965 1034.92 777.935C1037.29 775.24 1039.96 768.926 1031.45 756.561C1029.1 753.179 1027.65 749.243 1027.39 745.121C1026.96 738.305 1025.83 728.371 1022.74 727.314C1022.74 727.314 1012.7 724.197 1007.07 714.791H1007.05Z" fill="#050D08"/>
<path d="M1032.93 564.963L1042.81 572.467L1041.99 576.852L1030.48 571.093L1032.93 564.963Z" fill="#07150E"/>
<path d="M763.142 655.584C763.142 658.411 747.689 660.709 728.616 660.709C709.543 660.709 694.09 658.411 694.09 655.584C694.09 652.757 709.543 650.458 728.616 650.458C747.689 650.458 763.142 652.757 763.142 655.584Z" fill="#103F26"/>
<path d="M728.616 779.943C764.448 779.943 793.495 776.595 793.495 772.466C793.495 768.337 764.448 764.989 728.616 764.989C692.784 764.989 663.737 768.337 663.737 772.466C663.737 776.595 692.784 779.943 728.616 779.943Z" fill="#F5F5F5"/>
<path d="M737.017 664.593C737.017 664.593 729.858 643.034 738.998 633.285C748.138 623.536 733.503 607.077 755.165 597.803C776.826 588.504 776.087 566.786 794.922 566.707C813.783 566.601 828.603 557.83 834.758 566.152C840.913 574.474 812.33 578.517 812.277 592.651C812.224 606.786 809.424 608.134 801.711 616.958C797.378 621.898 799.386 632.81 789.77 643.404C782.242 651.7 762.403 648.9 737.017 664.593Z" fill="#236B44"/>
<path d="M737.017 664.593C737.017 664.593 746.051 642.955 766.841 631.515C787.631 620.049 780.287 573.418 834.784 566.152" stroke="#FBFBFB" stroke-width="0.4" stroke-linecap="round" stroke-linejoin="round"/>
<path d="M741.27 674.844C741.27 674.844 737.466 644.012 744.44 619.23C751.414 594.448 740.002 586.522 720.48 580.102C700.932 573.708 713.215 553.286 707.404 534.237C701.592 515.188 686.957 544.778 682.097 518.86C677.236 492.942 669.839 479.547 663.922 480.657C658.005 481.767 656.024 487.5 651.823 517.143C647.597 546.786 627.018 544.593 644.876 568.107C662.733 591.595 667.277 584.963 657.371 605.359C636.185 648.926 712.027 636.033 741.296 674.844H741.27Z" fill="#5EB083"/>
<path d="M741.27 674.844C741.27 674.844 731.548 622.982 703.52 597.381C675.493 571.78 656.922 544.382 663.922 480.684" stroke="#FBFBFB" stroke-width="0.48" stroke-linecap="round" stroke-linejoin="round"/>
<path d="M731.522 670.617C731.522 670.617 701.09 589.983 680.142 595.056C659.194 600.155 657.08 601.211 638.007 585.941C618.908 570.67 605.04 587.341 619.648 599.573C634.256 611.806 634.758 612.916 620.837 626.363C606.915 639.838 640.121 654.897 669.337 650.379C698.554 645.835 726.952 663.933 731.522 670.617Z" fill="#236B44"/>
<path d="M731.522 670.617C731.522 670.617 717.257 640.63 678.821 632.863C640.385 625.095 658.348 599.758 613.572 588.028" stroke="#FBFBFB" stroke-width="0.44" stroke-linecap="round" stroke-linejoin="round"/>
<path d="M728.616 660.736C712.634 660.736 699.241 659.124 695.279 656.931C699.188 662.004 711.736 684.593 719.185 771.488C719.185 772.757 723.412 773.761 728.616 773.761C733.82 773.761 738.047 772.73 738.047 771.488C745.496 684.593 758.044 662.004 761.954 656.931C758.018 659.124 744.598 660.736 728.616 660.736Z" fill="#FFBB8A"/>
</svg>
